<svg width="579" height="162" viewBox="0 0 579 162" fill="none" xmlns="http://www.w3.org/2000/svg">
<path d="M0 43V152C10.8 165.2 21.1667 157.5 25 152V151V148.5V77.5H26.5H57C73.8 67.1 64 56.5 57 52.5H26.5C24.5 39.7 36 30.8333 42 28L59.5 26.5C73.5 13.3 63.6667 5 57 2.49999C57.3333 1.66666 53.2 0.899994 34 4.49999C14.8 8.09999 3.33333 31.6667 0 43Z" fill="#429887"/>
<path d="M522.5 51.0004C543 50.6671 582.8 63.1005 578 115.5C576.167 128.667 563.1 156.2 525.5 161C509 161.667 474.4 152.7 468 111.5C467.667 91.3337 478.1 51.0004 522.5 51.0004ZM552.5 108C552.1 80.0005 533.334 74.6671 524 75.5004C496.8 77.1004 493.333 100.167 495 111.5C500.6 132.3 518.334 135.834 526.5 135C546.9 132.2 552.333 115.834 552.5 108Z" fill="#384B52"/>
<path d="M82.5 151.5V61C84.1 55 89.8333 51.8333 92.5 51H96.5C104.9 51.4 107 57.8333 107 61V151.5C105.4 156.3 98.6667 158.5 95.5 159H95C88.2 158.2 83.8333 153.667 82.5 151.5Z" fill="#429887"/>
<path d="M122 60.5V149.5C123.6 155.1 127.667 157.5 129.5 158H131H139.5C145.9 156 147.833 151.5 148 149.5V100.5C151.6 84.9 164.167 78.3333 170 77H172.5H176.5H183C197.8 79.4 204.5 93.6667 206 100.5V149.5C210.4 157.5 214.833 158.833 216.5 158.5H219H224.5C228.5 157.3 231.5 152 232.5 149.5V100C226.9 65.6 200.833 53 188.5 51H187.5H184.5H167.5C159.5 51.4 152.833 55.8333 150.5 58H149.5H147.5C145.9 52.8 141.167 50.8333 139 50.5H138H136.5H133.5H132C125.6 52.1 122.667 57.8333 122 60.5Z" fill="#429887"/>
<path d="M301 51C319.334 49.8335 356 60.5002 356 112.5V150.5C352.834 156.5 343.3 165.2 330.5 152C321.5 158.5 297 167.6 271 152C263.667 148 248.5 134.5 246.5 112.5C244 93.3334 251.4 54.2 301 51ZM301.5 76.5C277.5 75.7 271.834 96.1667 272 106.5C272 116.667 278.1 136.4 302.5 134C326.9 131.6 331.334 113.333 330.5 104.5C330.834 95.5001 325.5 77.3001 301.5 76.5Z" fill="#429887"/>
<path d="M373 12.5V150.5C377 157.3 381 158.667 382.5 158.5H384.5H388C395.2 157.3 398 153 398.5 151V131L408 122L408.5 122.5L446.5 158.5H464.5C471.3 154.1 470.667 148.333 469.5 146L428 105.5V104.5V103L468.5 62C472.1 56.4 467.667 53 465 52H444L401 94H400H399V12.5C398.2 4.1 390.333 0.666667 386.5 0H385.5C375.1 1.6 372.833 9 373 12.5Z" fill="#384B52"/>
<path d="M436 15C427.6 8.2 432.5 3.83333 436 2.5H522C530.4 6.9 525.5 12.6667 522 15H436Z" fill="#384B52"/>
<path d="M483.5 40C492.7 34.8 487.333 29.5 483.5 27.5H415C407.8 33.5 412 38.3333 415 40H483.5Z" fill="#384B52"/>
<path d="M550.5 8.49999C550.9 3.29999 546.333 1.99999 544 1.99999C538.4 1.59999 537 6.16666 537 8.49999C537.8 13.3 542 14.8333 544 15C549.6 13.8 550.667 10.1667 550.5 8.49999Z" fill="#384B52"/>
<path d="M108.5 16C108.5 3.99999 98.8333 1.33333 94 1.49999C84 1.49999 80.5 11.1667 80 16C82 26 90.1667 28.8333 94 29C104.4 28.6 108 20.1667 108.5 16Z" fill="#384B52"/>
</svg>
